# xmcd
#
# Track frame offsets:
#	150
#	12632
#	26972
#	37932
#	46887
#	59667
#	71522
#	83000
#	94510
#	106867
#	118642
#
# Disc length: 1757
#
# Revision: 4
# Processed by: cddbd v1.5.1PL0 Copyright (c) Steve Scherf et al.
# Submitted via: audiograbber 1.70
# Normalized: r2:TSWAP
#
DISCID=8a06db0b
DTITLE=50's Hits Country - Great Records of the Decade - Volume 1
DYEAR=1900
DGENRE=
TTITLE0=Hank Thompson - The Wild Side of Life
TTITLE1=slim whitman - Indian Love Call
TTITLE2=Ferlin Husky - Gone
TTITLE3=Faron Young - Alone with You
TTITLE4=Tex Ritter - High Noon
TTITLE5=Ernie Ford Tennessee - Sixteen Tons
TTITLE6=Jean Shepard and Ferlin Husky - A Dear John Letter
TTITLE7=Sonny James - Young Love
TTITLE8=Buck Owens - Under Your Spell Again
TTITLE9=Faron Young - Country Girl
TTITLE10=Hank Thompson and Merle Travis - Wildwood Flower
EXTD=
EXTT0=
EXTT1=
EXTT2=
EXTT3=
EXTT4=
EXTT5=
EXTT6=
EXTT7=
EXTT8=
EXTT9=
EXTT10=
PLAYORDER=
